# Blender 4.5.2 LTS
# www.blender.org
mtllib Head222.mtl
o Cylinder
v 0.000000 -0.504142 -1.091727
v 0.545864 -0.504142 -0.945464
v 0.945464 -0.504142 -0.545864
v 1.091727 -0.504142 0.000000
v 0.945464 -0.504142 0.545864
v 0.545864 -0.504142 0.945464
v 0.000000 -0.504142 1.091727
v -0.545864 -0.504142 0.945464
v -0.945464 -0.504142 0.545864
v -1.091727 -0.504142 0.000000
v -0.945464 -0.504142 -0.545864
v -0.545864 -0.504142 -0.945464
v 0.000000 -1.000000 -0.555184
v 0.000000 -0.588012 -1.074521
v 0.000000 -0.944804 -0.783916
v 0.000000 -0.794006 -0.974006
v 0.000000 1.000000 -0.565184
v 0.000000 0.580727 -1.025569
v 0.000000 0.943828 -0.786018
v 0.000000 0.790363 -0.954530
v 0.277592 -1.000000 -0.480803
v 0.537261 -0.588012 -0.930562
v 0.391958 -0.944804 -0.678891
v 0.487003 -0.794006 -0.843514
v 0.282592 1.000000 -0.489464
v 0.512784 0.580727 -0.888169
v 0.393009 0.943828 -0.680711
v 0.477265 0.790363 -0.826647
v 0.480804 -1.000000 -0.277592
v 0.930563 -0.588011 -0.537260
v 0.678891 -0.944804 -0.391958
v 0.843514 -0.794006 -0.487003
v 0.489464 1.000000 -0.282592
v 0.888168 0.580727 -0.512784
v 0.680711 0.943828 -0.393009
v 0.826647 0.790363 -0.477265
v 0.555184 -1.000000 0.000000
v 1.074521 -0.588011 0.000000
v 0.783916 -0.944804 0.000000
v 0.974006 -0.794006 0.000000
v 0.565184 1.000000 -0.000000
v 1.025569 0.580727 -0.000000
v 0.786018 0.943828 -0.000000
v 0.954530 0.790363 -0.000000
v 0.480804 -1.000000 0.277592
v 0.930563 -0.588011 0.537261
v 0.678891 -0.944804 0.391958
v 0.843514 -0.794006 0.487003
v 0.489464 1.000000 0.282592
v 0.888168 0.580727 0.512784
v 0.680711 0.943828 0.393009
v 0.826647 0.790363 0.477265
v 0.277592 -1.000000 0.480804
v 0.537261 -0.588011 0.930563
v 0.391958 -0.944804 0.678891
v 0.487003 -0.794006 0.843514
v 0.282592 1.000000 0.489464
v 0.512784 0.580727 0.888168
v 0.393009 0.943828 0.680711
v 0.477265 0.790364 0.826647
v 0.000000 -1.000000 0.555184
v 0.000000 -0.588011 1.074521
v 0.000000 -0.944804 0.783916
v 0.000000 -0.794005 0.974006
v -0.000000 1.000000 0.565184
v 0.000000 0.580727 1.025568
v -0.000000 0.943828 0.786017
v -0.000000 0.790364 0.954530
v -0.277592 -1.000000 0.480804
v -0.537261 -0.588011 0.930563
v -0.391958 -0.944804 0.678891
v -0.487003 -0.794006 0.843514
v -0.282592 1.000000 0.489464
v -0.512784 0.580727 0.888168
v -0.393009 0.943828 0.680711
v -0.477265 0.790364 0.826647
v -0.480804 -1.000000 0.277592
v -0.930563 -0.588011 0.537261
v -0.678891 -0.944804 0.391958
v -0.843514 -0.794006 0.487003
v -0.489464 1.000000 0.282592
v -0.888168 0.580727 0.512784
v -0.680711 0.943828 0.393009
v -0.826647 0.790363 0.477265
v -0.555184 -1.000000 0.000000
v -1.074521 -0.588011 0.000000
v -0.783916 -0.944804 0.000000
v -0.974006 -0.794006 0.000000
v -0.565184 1.000000 -0.000000
v -1.025569 0.580727 -0.000000
v -0.786018 0.943828 -0.000000
v -0.954530 0.790363 -0.000000
v -0.480804 -1.000000 -0.277592
v -0.930563 -0.588011 -0.537260
v -0.678891 -0.944804 -0.391958
v -0.843514 -0.794006 -0.487003
v -0.489464 1.000000 -0.282592
v -0.888168 0.580727 -0.512784
v -0.680711 0.943828 -0.393009
v -0.826647 0.790363 -0.477265
v -0.277592 -1.000000 -0.480803
v -0.537261 -0.588012 -0.930562
v -0.391958 -0.944804 -0.678891
v -0.487003 -0.794006 -0.843514
v -0.282592 1.000000 -0.489464
v -0.512784 0.580727 -0.888169
v -0.393009 0.943828 -0.680711
v -0.477265 0.790363 -0.826647
vn 0.2341 -0.4263 -0.8737
vn 0.1643 -0.7728 -0.6130
vn 0.0627 -0.9702 -0.2341
vn 0.2460 0.3111 -0.9180
vn 0.1776 0.7276 -0.6626
vn 0.0659 0.9670 -0.2460
vn 0.6396 -0.4263 -0.6396
vn 0.4488 -0.7728 -0.4488
vn 0.1714 -0.9702 -0.1714
vn 0.6720 0.3111 -0.6720
vn 0.4851 0.7276 -0.4851
vn 0.1801 0.9670 -0.1801
vn 0.8737 -0.4263 -0.2341
vn 0.6130 -0.7728 -0.1643
vn 0.2341 -0.9702 -0.0627
vn 0.9180 0.3111 -0.2460
vn 0.6626 0.7276 -0.1776
vn 0.2460 0.9670 -0.0659
vn 0.8737 -0.4263 0.2341
vn 0.6130 -0.7728 0.1643
vn 0.2341 -0.9702 0.0627
vn 0.9180 0.3111 0.2460
vn 0.6626 0.7276 0.1776
vn 0.2460 0.9670 0.0659
vn 0.6396 -0.4263 0.6396
vn 0.4488 -0.7728 0.4488
vn 0.1714 -0.9702 0.1714
vn 0.6720 0.3111 0.6720
vn 0.4851 0.7276 0.4851
vn 0.1801 0.9670 0.1801
vn 0.2341 -0.4263 0.8737
vn 0.1643 -0.7728 0.6130
vn 0.0627 -0.9702 0.2341
vn 0.2460 0.3111 0.9180
vn 0.1776 0.7276 0.6626
vn 0.0659 0.9670 0.2460
vn -0.2341 -0.4263 0.8737
vn -0.1643 -0.7728 0.6130
vn -0.0627 -0.9702 0.2341
vn -0.2460 0.3111 0.9180
vn -0.1776 0.7276 0.6626
vn -0.0659 0.9670 0.2460
vn -0.6396 -0.4263 0.6396
vn -0.4488 -0.7728 0.4488
vn -0.1714 -0.9702 0.1714
vn -0.6720 0.3111 0.6720
vn -0.4851 0.7276 0.4851
vn -0.1801 0.9670 0.1801
vn -0.8737 -0.4263 0.2341
vn -0.6130 -0.7728 0.1643
vn -0.2341 -0.9702 0.0627
vn -0.9180 0.3111 0.2460
vn -0.6626 0.7276 0.1776
vn -0.2460 0.9670 0.0659
vn -0.8737 -0.4263 -0.2341
vn -0.6130 -0.7728 -0.1643
vn -0.2341 -0.9702 -0.0627
vn -0.9180 0.3111 -0.2460
vn -0.6626 0.7276 -0.1776
vn -0.2460 0.9670 -0.0659
vn -0.6396 -0.4263 -0.6396
vn -0.4488 -0.7728 -0.4488
vn -0.1714 -0.9702 -0.1714
vn -0.6720 0.3111 -0.6720
vn -0.4851 0.7276 -0.4851
vn -0.1801 0.9670 -0.1801
vn -0.2341 -0.4263 -0.8737
vn -0.1643 -0.7728 -0.6130
vn -0.0627 -0.9702 -0.2341
vn -0.2460 0.3111 -0.9180
vn -0.1776 0.7276 -0.6626
vn -0.0659 0.9670 -0.2460
vn 0.2539 -0.1944 -0.9475
vn -0.0000 -1.0000 -0.0000
vn -0.2539 -0.1944 -0.9475
vn -0.0000 1.0000 -0.0000
vn 0.2584 0.0588 -0.9643
vn -0.2584 0.0588 -0.9643
vn 0.6936 -0.1944 -0.6936
vn 0.7059 0.0588 -0.7059
vn 0.9475 -0.1944 -0.2539
vn 0.9643 0.0588 -0.2584
vn 0.9475 -0.1944 0.2539
vn 0.9643 0.0588 0.2584
vn 0.6936 -0.1944 0.6936
vn 0.7059 0.0588 0.7059
vn 0.2539 -0.1944 0.9475
vn 0.2584 0.0588 0.9643
vn -0.2539 -0.1944 0.9475
vn -0.2584 0.0588 0.9643
vn -0.6936 -0.1944 0.6936
vn -0.7059 0.0588 0.7059
vn -0.9475 -0.1944 0.2539
vn -0.9643 0.0588 0.2584
vn -0.9475 -0.1944 -0.2539
vn -0.9643 0.0588 -0.2584
vn -0.6936 -0.1944 -0.6936
vn -0.7059 0.0588 -0.7059
vt 1.000000 0.602997
vt 0.916667 0.602997
vt 0.916667 0.500000
vt 0.999327 0.500000
vt 0.750000 0.489740
vt 0.869870 0.457621
vt 0.845020 0.414580
vt 0.750000 0.440040
vt 0.817295 0.366558
vt 0.750000 0.384590
vt 0.916667 0.895182
vt 1.000000 0.895182
vt 0.998105 1.000000
vt 0.916667 1.000000
vt 0.369634 0.457213
vt 0.250000 0.489269
vt 0.250000 0.438644
vt 0.344322 0.413371
vt 0.250000 0.385644
vt 0.317822 0.367471
vt 0.833333 0.602997
vt 0.833333 0.500000
vt 0.957621 0.369870
vt 0.914580 0.345020
vt 0.866558 0.317295
vt 0.833333 0.895182
vt 0.833333 1.000000
vt 0.457213 0.369635
vt 0.413371 0.344322
vt 0.367471 0.317822
vt 0.750000 0.602997
vt 0.750000 0.500000
vt 0.989740 0.250000
vt 0.940040 0.250000
vt 0.884590 0.250000
vt 0.750000 0.895182
vt 0.750000 1.000000
vt 0.489269 0.250000
vt 0.438644 0.250000
vt 0.385644 0.250000
vt 0.666667 0.602997
vt 0.666667 0.500000
vt 0.957621 0.130130
vt 0.914580 0.154980
vt 0.866558 0.182705
vt 0.666667 0.895182
vt 0.666667 1.000000
vt 0.457213 0.130366
vt 0.413371 0.155678
vt 0.367471 0.182178
vt 0.583333 0.602997
vt 0.583333 0.500000
vt 0.869870 0.042379
vt 0.845020 0.085420
vt 0.817295 0.133442
vt 0.583333 0.895182
vt 0.583333 1.000000
vt 0.369634 0.042787
vt 0.344322 0.086629
vt 0.317822 0.132529
vt 0.500000 0.602997
vt 0.500000 0.500000
vt 0.750000 0.010260
vt 0.750000 0.059960
vt 0.750000 0.115410
vt 0.500000 0.895182
vt 0.500000 1.000000
vt 0.250000 0.010731
vt 0.250000 0.061356
vt 0.250000 0.114356
vt 0.416667 0.602997
vt 0.416667 0.500000
vt 0.630130 0.042379
vt 0.654980 0.085420
vt 0.682705 0.133442
vt 0.416667 0.895182
vt 0.416667 1.000000
vt 0.130366 0.042787
vt 0.155678 0.086629
vt 0.182178 0.132529
vt 0.333333 0.602997
vt 0.333333 0.500000
vt 0.542379 0.130130
vt 0.585420 0.154980
vt 0.633442 0.182705
vt 0.333333 0.895182
vt 0.333333 1.000000
vt 0.042787 0.130366
vt 0.086629 0.155678
vt 0.132529 0.182178
vt 0.250000 0.602997
vt 0.250000 0.500000
vt 0.510260 0.250000
vt 0.559960 0.250000
vt 0.615410 0.250000
vt 0.250000 0.895182
vt 0.250000 1.000000
vt 0.010731 0.250000
vt 0.061356 0.250000
vt 0.114356 0.250000
vt 0.166667 0.602997
vt 0.166667 0.500000
vt 0.542379 0.369870
vt 0.585420 0.345020
vt 0.633442 0.317295
vt 0.166667 0.895182
vt 0.166667 1.000000
vt 0.042787 0.369634
vt 0.086629 0.344322
vt 0.132529 0.317822
vt 0.083333 0.602997
vt 0.083333 0.500000
vt 0.630130 0.457621
vt 0.654980 0.414580
vt 0.682705 0.366558
vt 0.083333 0.895182
vt 0.083333 1.000000
vt 0.130366 0.457213
vt 0.155678 0.413371
vt 0.182178 0.367471
vt 0.000000 0.602997
vt 0.000673 0.500000
vt 0.000000 0.895182
vt 0.001895 1.000000
vt 1.000000 0.623965
vt 0.916667 0.623965
vt 0.083333 0.623965
vt 0.000000 0.623965
vt 0.833333 0.623965
vt 0.750000 0.623965
vt 0.666667 0.623965
vt 0.583333 0.623965
vt 0.500000 0.623965
vt 0.416667 0.623965
vt 0.333333 0.623965
vt 0.250000 0.623965
vt 0.166667 0.623965
s 1
f 14/1/1 22/2/1 24/3/1 16/4/1
f 16/5/2 24/6/2 23/7/2 15/8/2
f 15/8/3 23/7/3 21/9/3 13/10/3
f 26/11/4 18/12/4 20/13/4 28/14/4
f 28/15/5 20/16/5 19/17/5 27/18/5
f 27/18/6 19/17/6 17/19/6 25/20/6
f 22/2/7 30/21/7 32/22/7 24/3/7
f 24/6/8 32/23/8 31/24/8 23/7/8
f 23/7/9 31/24/9 29/25/9 21/9/9
f 34/26/10 26/11/10 28/14/10 36/27/10
f 36/28/11 28/15/11 27/18/11 35/29/11
f 35/29/12 27/18/12 25/20/12 33/30/12
f 30/21/13 38/31/13 40/32/13 32/22/13
f 32/23/14 40/33/14 39/34/14 31/24/14
f 31/24/15 39/34/15 37/35/15 29/25/15
f 42/36/16 34/26/16 36/27/16 44/37/16
f 44/38/17 36/28/17 35/29/17 43/39/17
f 43/39/18 35/29/18 33/30/18 41/40/18
f 38/31/19 46/41/19 48/42/19 40/32/19
f 40/33/20 48/43/20 47/44/20 39/34/20
f 39/34/21 47/44/21 45/45/21 37/35/21
f 50/46/22 42/36/22 44/37/22 52/47/22
f 52/48/23 44/38/23 43/39/23 51/49/23
f 51/49/24 43/39/24 41/40/24 49/50/24
f 46/41/25 54/51/25 56/52/25 48/42/25
f 48/43/26 56/53/26 55/54/26 47/44/26
f 47/44/27 55/54/27 53/55/27 45/45/27
f 58/56/28 50/46/28 52/47/28 60/57/28
f 60/58/29 52/48/29 51/49/29 59/59/29
f 59/59/30 51/49/30 49/50/30 57/60/30
f 54/51/31 62/61/31 64/62/31 56/52/31
f 56/53/32 64/63/32 63/64/32 55/54/32
f 55/54/33 63/64/33 61/65/33 53/55/33
f 66/66/34 58/56/34 60/57/34 68/67/34
f 68/68/35 60/58/35 59/59/35 67/69/35
f 67/69/36 59/59/36 57/60/36 65/70/36
f 62/61/37 70/71/37 72/72/37 64/62/37
f 64/63/38 72/73/38 71/74/38 63/64/38
f 63/64/39 71/74/39 69/75/39 61/65/39
f 74/76/40 66/66/40 68/67/40 76/77/40
f 76/78/41 68/68/41 67/69/41 75/79/41
f 75/79/42 67/69/42 65/70/42 73/80/42
f 70/71/43 78/81/43 80/82/43 72/72/43
f 72/73/44 80/83/44 79/84/44 71/74/44
f 71/74/45 79/84/45 77/85/45 69/75/45
f 82/86/46 74/76/46 76/77/46 84/87/46
f 84/88/47 76/78/47 75/79/47 83/89/47
f 83/89/48 75/79/48 73/80/48 81/90/48
f 78/81/49 86/91/49 88/92/49 80/82/49
f 80/83/50 88/93/50 87/94/50 79/84/50
f 79/84/51 87/94/51 85/95/51 77/85/51
f 90/96/52 82/86/52 84/87/52 92/97/52
f 92/98/53 84/88/53 83/89/53 91/99/53
f 91/99/54 83/89/54 81/90/54 89/100/54
f 86/91/55 94/101/55 96/102/55 88/92/55
f 88/93/56 96/103/56 95/104/56 87/94/56
f 87/94/57 95/104/57 93/105/57 85/95/57
f 98/106/58 90/96/58 92/97/58 100/107/58
f 100/108/59 92/98/59 91/99/59 99/109/59
f 99/109/60 91/99/60 89/100/60 97/110/60
f 94/101/61 102/111/61 104/112/61 96/102/61
f 96/103/62 104/113/62 103/114/62 95/104/62
f 95/104/63 103/114/63 101/115/63 93/105/63
f 106/116/64 98/106/64 100/107/64 108/117/64
f 108/118/65 100/108/65 99/109/65 107/119/65
f 107/119/66 99/109/66 97/110/66 105/120/66
f 102/111/67 14/121/67 16/122/67 104/112/67
f 104/113/68 16/5/68 15/8/68 103/114/68
f 103/114/69 15/8/69 13/10/69 101/115/69
f 18/123/70 106/116/70 108/117/70 20/124/70
f 20/16/71 108/118/71 107/119/71 19/17/71
f 19/17/72 107/119/72 105/120/72 17/19/72
f 14/1/73 1/125/73 2/126/73 22/2/73
f 13/10/74 21/9/74 29/25/74 37/35/74 45/45/74 53/55/74 61/65/74 69/75/74 77/85/74 85/95/74 93/105/74 101/115/74
f 102/111/75 12/127/75 1/128/75 14/121/75
f 25/20/76 17/19/76 105/120/76 97/110/76 89/100/76 81/90/76 73/80/76 65/70/76 57/60/76 49/50/76 41/40/76 33/30/76
f 1/125/77 18/12/77 26/11/77 2/126/77
f 12/127/78 106/116/78 18/123/78 1/128/78
f 22/2/79 2/126/79 3/129/79 30/21/79
f 2/126/80 26/11/80 34/26/80 3/129/80
f 30/21/81 3/129/81 4/130/81 38/31/81
f 3/129/82 34/26/82 42/36/82 4/130/82
f 38/31/83 4/130/83 5/131/83 46/41/83
f 4/130/84 42/36/84 50/46/84 5/131/84
f 46/41/85 5/131/85 6/132/85 54/51/85
f 5/131/86 50/46/86 58/56/86 6/132/86
f 54/51/87 6/132/87 7/133/87 62/61/87
f 6/132/88 58/56/88 66/66/88 7/133/88
f 62/61/89 7/133/89 8/134/89 70/71/89
f 7/133/90 66/66/90 74/76/90 8/134/90
f 70/71/91 8/134/91 9/135/91 78/81/91
f 8/134/92 74/76/92 82/86/92 9/135/92
f 78/81/93 9/135/93 10/136/93 86/91/93
f 9/135/94 82/86/94 90/96/94 10/136/94
f 86/91/95 10/136/95 11/137/95 94/101/95
f 10/136/96 90/96/96 98/106/96 11/137/96
f 94/101/97 11/137/97 12/127/97 102/111/97
f 11/137/98 98/106/98 106/116/98 12/127/98
